<?xml version="1.0" encoding="UTF-8"?>
<svg width="1022px" height="342px" viewBox="0 0 1022 342" version="1.1" xmlns="http://www.w3.org/2000/svg" xmlns:xlink="http://www.w3.org/1999/xlink">
    <!-- Generator: Sketch 54.1 (76490) - https://sketchapp.com -->
    <title>Group 2</title>
    <desc>Created with Sketch.</desc>
    <defs>
        <linearGradient x1="21.4516563%" y1="22.4717598%" x2="73.8909751%" y2="78.5881116%" id="linearGradient-1">
            <stop stop-color="#00BC87" offset="0%"></stop>
            <stop stop-color="#449D69" offset="100%"></stop>
        </linearGradient>
        <linearGradient x1="21.8151604%" y1="22.4717598%" x2="73.586773%" y2="78.5881116%" id="linearGradient-2">
            <stop stop-color="#00BC87" offset="0%"></stop>
            <stop stop-color="#449D69" offset="100%"></stop>
        </linearGradient>
        <path d="M136.125,55.0898353 C136.125,55.0898353 121.292639,52.1343303 117.653989,53.50936 C105.001224,59.577285 101.43283,72.5203583 97.3710052,87.276853 C91.5739997,108.329366 85.0058029,132.19341 50.6011961,142.999525 C46.6014584,144.254847 42.6066223,145.105747 38.7996824,145.772232 C36.9877097,156.840412 34.53689,163.518203 29.6940703,164.796172 C29.1663271,164.935293 28.6434856,165 28.1288134,165 C23.7565511,165 19.815633,160.350782 17.1295347,156.664085 C16.2619445,155.475089 13.6232286,151.854716 15.059409,148.462437 C16.8011248,144.348672 22.9657533,143.41527 31.4995074,142.119506 C32.4994419,141.965827 33.5206167,141.813765 34.563032,141.647143 C35.3440266,136.224673 35.963267,130.3719 36.5122506,125.209877 C37.6592343,114.400526 38.8437971,103.264404 41.0021523,95.1662879 C40.9890813,95.1598172 40.9760102,95.1565818 40.9629392,95.1501111 C19.2976931,85.4165188 -5.25788628,74.3855456 0.988436173,23.2380012 L2.06026132,14.4470322 L5.58290615,22.5868842 C7.80661655,27.7319217 10.4894472,32.0653681 13.6738789,35.7294177 C13.1118242,28.2702862 13.319327,19.7273078 14.5300319,9.83162382 L15.7309335,0 L19.1735183,9.29697993 C27.5830976,32.0066462 42.1703764,37.6156348 57.6121743,43.5541453 C59.5385186,44.2918083 61.4746661,45.0391773 63.4010104,45.8172823 C72.5491034,32.8821357 82.6742564,25.6719655 92.7749013,24.9731269 C100.78418,24.4211738 108.236306,27.9050136 114.951552,35.336321 L115.270158,35.6905933 C118.090235,38.8046311 121.243623,42.3327954 123.366033,47.5579081 L136.125,55.0898353 Z M8.45189095,33 C5.98788417,74.7778214 26.5103809,84.2352781 46.3940006,93.4005614 C50.232165,95.1735233 54.0997406,96.9581057 57.75,99 C55.1944916,96.7605566 52.4445424,94.6024569 49.6079935,92.3812743 C36.5428754,82.1386013 22.2049049,70.8749811 18.0285114,44.7470345 C14.3308673,41.4584226 11.1560894,37.5771634 8.45189095,33 Z" id="path-3"></path>
    </defs>
    <g id="Page-1" stroke="none" stroke-width="1" fill="none" fill-rule="evenodd">
        <g id="Desktop-Copy-6" transform="translate(-2.000000, -682.000000)">
            <g id="Group-2" transform="translate(2.000000, 682.000000)">
                <rect id="Rectangle-32" fill="#D7EFEE" x="0" y="0" width="1024" height="343"></rect>
                <g id="Group-3-Copy-3" transform="translate(838.500000, 114.000000) scale(1, -1) translate(-838.500000, -114.000000) translate(676.000000, 0.000000)" fill="#00BC87" fill-rule="nonzero">
                    <path d="M202.755532,133.027607 C202.755532,133.027607 180.279602,131.743179 182.905737,146.696394 C182.905737,146.696394 182.379327,149.338166 184.904912,150.538462 C184.904912,150.538462 184.946315,149.41669 187.217567,149.803701 C188.024297,149.932451 188.844272,149.970106 189.660346,149.915878 C190.753293,149.840735 191.791031,149.43136 192.617705,148.749236 L192.617705,148.749236 C192.617705,148.749236 198.946454,146.270121 201.406976,136.465837 C201.406976,136.465837 203.222795,134.328862 203.151818,133.779194 L199.354569,135.316021 C199.354569,135.316021 200.649892,137.912922 199.632561,140.072333 C199.632561,140.072333 199.508352,135.411372 198.780841,135.51794 C198.632973,135.51794 196.805325,136.420966 196.805325,136.420966 C196.805325,136.420966 199.041089,140.947314 197.355394,144.234105 C197.355394,144.234105 197.994184,138.6589 196.107389,136.74628 L193.46351,138.210192 C193.46351,138.210192 196.0719,142.88237 194.3034,146.696394 C194.3034,146.696394 194.758833,140.846355 192.901611,138.569159 L190.482491,140.363993 C190.482491,140.363993 192.931185,144.968866 191.440676,148.132261 C191.440676,148.132261 191.24549,141.323108 189.956081,140.807093 C189.956081,140.807093 187.838612,142.579492 187.513303,143.308644 C187.513303,143.308644 189.193083,146.673958 188.152092,148.418313 C188.152092,148.418313 187.513303,143.880747 186.969149,143.858312 C186.969149,143.858312 184.857594,146.86466 184.63875,148.906284 C184.744423,147.002692 185.372376,145.158248 186.460483,143.555433 C185.241978,143.774306 184.117457,144.326011 183.225132,145.14274 C183.225132,145.14274 183.556356,143.016983 186.980978,142.831891 C186.980978,142.831891 188.72582,140.549086 189.193083,140.408864 C189.193083,140.408864 185.786205,140.139639 183.721968,141.009012 C183.721968,141.009012 185.537787,139.00665 189.814128,139.915285 L192.180016,138.064361 C192.180016,138.064361 187.690744,137.503476 185.79212,138.126059 C185.79212,138.126059 187.980566,136.35366 192.82472,137.643697 L195.427196,136.168567 C195.427196,136.168567 191.600373,135.388936 189.323207,135.669379 C189.323207,135.669379 191.730497,134.441039 196.190195,135.770339 L198.053331,134.97949 C198.053331,134.97949 195.249754,134.457866 194.427609,134.373733 C193.605463,134.2896 193.56406,134.076463 193.56406,134.076463 C195.339643,133.796364 197.162398,133.990577 198.828159,134.637349 C198.828159,134.637349 202.826509,133.263179 202.755532,133.027607 Z" id="Shape" opacity="0.1"></path>
                    <path d="M72.2810752,119.59248 C72.2810752,119.59248 77.4363803,98.2089592 61.5050148,98.1340103 C61.5050148,98.1340103 58.8596068,97.1654388 57.1922339,99.3793164 C57.1922339,99.3793164 58.3293469,99.615694 57.5575241,101.725796 C57.2905858,102.471952 57.1126524,103.245791 57.0272641,104.031919 C56.9131381,105.103581 57.1592904,106.182429 57.7283856,107.104827 L57.7283856,107.104827 C57.7283856,107.104827 59.2190053,113.619623 68.9227623,117.70146 C68.9227623,117.70146 70.8316981,119.823093 71.4090922,119.846154 L70.4664079,115.931511 C70.4664079,115.931511 67.55587,116.721358 65.4937479,115.35498 C65.4937479,115.35498 70.3426806,116.052582 70.3485723,115.35498 C70.3485723,115.210848 69.7593946,113.302531 69.7593946,113.302531 C69.7593946,113.302531 64.698358,114.651613 61.5757161,112.455031 C61.5757161,112.455031 67.237714,114.046256 69.5413989,112.576103 L68.480879,109.739572 C68.480879,109.739572 63.1782795,111.428807 59.5489448,109.059266 C59.5489448,109.059266 65.5290986,110.523654 68.2039654,109.13998 L66.76048,106.49947 C66.76048,106.49947 61.5757161,108.044572 58.5532344,106.055541 C58.5532344,106.055541 65.623367,107.058704 66.3892981,105.917174 C66.3892981,105.917174 64.9163538,103.570694 64.2152323,103.132531 C64.2152323,103.132531 60.468062,104.158755 58.8183644,102.850031 C58.8183644,102.850031 63.6201628,103.028755 63.7321066,102.532939 C63.7321066,102.532939 60.9806466,99.9789083 58.883174,99.4023777 C60.8378183,99.8378698 62.6429399,100.763775 64.1209639,102.08901 C64.0993579,100.880719 63.7185589,99.7047473 63.0250933,98.7047756 C63.0250933,98.7047756 65.1697002,99.3966123 64.7926265,102.74049 C64.7926265,102.74049 66.8547485,104.816 66.919558,105.288755 C66.919558,105.288755 67.7738657,102.065949 67.2259304,99.9270205 C67.2259304,99.9270205 68.9934636,102.025592 67.3260906,105.974827 L68.8343856,108.598041 C68.8343856,108.598041 70.2012779,104.389368 69.853663,102.452225 C69.853663,102.452225 71.3207156,104.862123 69.1584333,109.289878 L70.2484121,112.05146 C70.2484121,112.05146 71.7036811,108.511562 71.7979495,106.286153 C71.7979495,106.286153 72.6640408,108.811358 70.5253256,112.864368 L71.0320185,114.78998 C71.0320185,114.78998 72.0454042,112.189827 72.2692917,111.417276 C72.4931792,110.644725 72.7229585,110.63896 72.7229585,110.63896 C72.7139797,112.392926 72.2059838,114.109788 71.255906,115.597123 C71.255906,115.597123 72.0277288,119.621307 72.2810752,119.59248 Z" id="Shape" opacity="0.1"></path>
                    <path d="M24.8461538,126.630987 C24.8461538,126.630987 7.30637296,113.979818 1.03641853,127.683866 C1.03641853,127.683866 -0.877325586,129.595672 0.496202471,131.884298 C0.496202471,131.884298 1.15135811,130.992122 2.7949942,132.471693 C3.3771748,132.993942 4.02149963,133.447814 4.71448529,133.823811 C5.65311878,134.327771 6.73676582,134.522352 7.80061319,134.377958 L7.80061319,134.377958 C7.80061319,134.377958 14.3291817,135.591539 21.8462306,128.769994 C21.8462306,128.769994 24.53007,127.938774 24.7829371,127.451124 L20.8232683,126.780607 C20.8232683,126.780607 20.4094858,129.590131 18.3693082,130.848044 C18.3693082,130.848044 20.8922321,126.935768 20.2370764,126.653153 C20.1048959,126.592197 18.127935,126.37608 18.127935,126.37608 C18.127935,126.37608 17.3923217,131.263654 14.1740133,133.108962 C14.1740133,133.108962 17.8348391,128.836491 17.3808277,126.287416 L14.3751575,126.132255 C14.3751575,126.132255 13.8636764,131.335693 10.2775613,133.574445 C10.2775613,133.574445 13.9383871,128.980569 13.7257489,126.143338 L10.7488136,126.37608 C10.7488136,126.37608 10.1453807,131.435439 7.15120452,133.275206 C7.15120452,133.275206 10.8235243,127.556412 10.07067,126.470285 C10.07067,126.470285 7.3523488,126.841563 6.67995222,127.273798 C6.67995222,127.273798 6.1569771,130.897917 4.31794372,131.8178 C4.31794372,131.8178 6.35812138,127.744822 5.94433887,127.462207 C5.94433887,127.462207 2.53638013,128.853116 1.19733395,130.437975 C2.35566683,128.920515 3.90479541,127.720946 5.69147178,126.957934 C4.57980522,126.512419 3.35752561,126.38917 2.17432043,126.60328 C2.17432043,126.60328 3.63405318,125.01842 6.5190368,126.630987 C6.5190368,126.630987 9.22011708,125.650148 9.67987542,125.77206 C9.67987542,125.77206 7.06499983,123.793756 4.89838863,123.450185 C4.89838863,123.450185 7.50751724,122.729795 10.4672116,125.666772 L13.4498939,125.373074 C13.4498939,125.373074 10.1338868,122.602341 8.23163663,122.136858 C8.23163663,122.136858 11.0074276,121.798828 14.2084951,125.35645 L17.1509485,125.483904 C17.1509485,125.483904 14.4900971,122.868331 12.4844013,121.926282 C12.4844013,121.926282 15.1222648,122.147941 17.9957545,125.54486 L19.9554744,125.849641 C19.9554744,125.849641 17.9727666,123.976625 17.3520928,123.488976 C16.731419,123.001327 16.8176237,122.796292 16.8176237,122.796292 C18.416426,123.478964 19.7872359,124.576299 20.7772925,125.966011 C20.7772925,125.966011 24.7714431,126.858187 24.8461538,126.630987 Z" id="Shape" opacity="0.1"></path>
                    <path d="M81.8461538,5.32704207 C81.8461538,5.32704207 64.306373,-7.33273266 58.0364185,6.3801757 C58.0364185,6.3801757 56.1226744,8.29244465 57.4962025,10.5816246 C57.4962025,10.5816246 58.1513581,9.6892324 59.7949942,11.1691623 C60.3802247,11.6888395 61.0263415,12.1408649 61.7202323,12.5160648 C62.658721,13.0205338 63.7425034,13.2151854 64.8063602,13.0703456 L64.8063602,13.0703456 C64.8063602,13.0703456 71.3349287,14.2842207 78.8519776,7.45548056 C78.8519776,7.45548056 81.535817,6.62960208 81.7829371,6.13629212 L77.8232683,5.4766979 C77.8232683,5.4766979 77.4152328,8.28690184 75.3693082,9.54511938 C75.3693082,9.54511938 77.8979791,5.63189654 77.2428234,5.34921331 C77.1106429,5.28824241 75.133682,5.07207288 75.133682,5.07207288 C75.133682,5.07207288 74.3750807,9.97191564 71.1567723,11.8065853 C71.1567723,11.8065853 74.8118512,7.53307987 74.3635868,4.98338794 L71.3579166,4.8281893 C71.3579166,4.8281893 70.8406884,10.0328865 67.2603203,12.2666384 C67.2603203,12.2666384 70.9211462,7.67165009 70.7085079,4.83373211 L67.7373196,5.06653007 C67.7373196,5.06653007 67.1281398,10.1326571 64.1339636,11.9728695 C64.1339636,11.9728695 67.8120303,6.2526911 67.0591761,5.16630062 C67.0591761,5.16630062 64.3408548,5.5376688 63.6684583,5.97000786 C63.6684583,5.97000786 63.1454831,9.59500466 61.3064498,10.5151109 C61.3064498,10.5151109 63.3466274,6.44114659 62.9328449,6.15292055 C62.9328449,6.15292055 59.5248862,7.5497083 58.18584,9.13495155 C59.3424222,7.61550651 60.8920415,6.41526638 62.6799778,5.65406778 C61.5671695,5.20513095 60.3420366,5.08176567 59.1570795,5.29932803 C59.1570795,5.29932803 60.6225592,3.71408478 63.5075428,5.32704207 C63.5075428,5.32704207 66.2086231,4.34042215 66.6683815,4.46790675 C66.6683815,4.46790675 64.0535059,2.48912409 61.8868947,2.13992716 C61.8868947,2.13992716 64.4902763,1.42490485 67.4499707,4.35705058 L70.4326529,4.06328172 C70.4326529,4.06328172 67.1223928,1.29187745 65.2143957,0.820738721 C65.2143957,0.820738721 67.9901867,0.488170208 71.1970012,4.0466533 L74.1394546,4.16859509 C74.1394546,4.16859509 71.4786032,1.55238945 69.4671604,0.615654805 C69.4671604,0.615654805 72.1107709,0.837367147 74.9842605,4.23510879 L76.9382335,4.53996326 C76.9382335,4.53996326 74.9497787,2.6886652 74.3291049,2.21198367 C73.7084311,1.73530213 73.7946358,1.52467541 73.7946358,1.52467541 C75.3939199,2.20676272 76.7649236,3.30451834 77.7543046,4.6951619 C77.7543046,4.6951619 81.7484552,5.5376688 81.8461538,5.32704207 Z" id="Shape" opacity="0.1"></path>
                    <path d="M149.076923,22.6180956 C149.076923,22.6180956 141.994194,0.700158689 128.635704,9.3131613 C128.635704,9.3131613 125.907112,9.92013823 125.692308,12.7789996 C125.692308,12.7789996 126.766328,12.3662553 127.24238,14.6727676 C127.419245,15.4932303 127.686131,16.2895974 128.037736,17.0460474 C128.517554,18.0640782 129.299632,18.8924017 130.267054,19.4071876 L130.267054,19.4071876 C130.267054,19.4071876 134.981132,24.4147473 145.291727,22.7577003 C145.291727,22.7577003 148.014514,23.6196075 148.513788,23.3221888 L145.61103,20.3419321 C145.61103,20.3419321 143.602322,22.6302351 141.152395,22.5391886 C141.152395,22.5391886 145.582003,20.5240252 145.216255,19.8745599 C145.140784,19.7470947 143.625544,18.3692571 143.625544,18.3692571 C143.625544,18.3692571 140.107402,22.3328164 136.333817,22.0718163 C136.333817,22.0718163 141.912917,20.4086996 143.050798,17.8229778 L140.647315,15.8867214 C140.647315,15.8867214 137.129173,20.2690949 132.815675,20.1355599 C132.815675,20.1355599 138.62119,18.187164 140.089985,15.4921864 L137.477504,13.9201162 C137.477504,13.9201162 133.994194,18.1264663 130.383164,17.9929314 C130.383164,17.9929314 136.838897,15.0369537 136.856313,13.6044882 C136.856313,13.6044882 134.377358,12.3116273 133.558781,12.2994878 C133.558781,12.2994878 130.969521,15.2554654 128.914369,14.9883956 C128.914369,14.9883956 133.024673,12.530139 132.850508,12.0263482 C132.850508,12.0263482 129.193033,11.2433479 127.132075,11.8746039 C128.996145,11.1960398 130.997566,11.0391007 132.937591,11.4193712 C132.275112,10.3504746 131.328899,9.50673687 130.214804,8.99146353 C130.214804,8.99146353 132.374456,8.43911453 133.820029,11.6196736 C133.820029,11.6196736 136.65312,12.3541157 136.955007,12.7365112 C136.955007,12.7365112 135.956459,9.3920683 134.359942,7.77750968 C134.359942,7.77750968 136.955007,8.69404484 137.66328,13.1310462 L140.322206,14.6484885 C140.322206,14.6484885 139.224964,10.1507895 137.901306,8.57871922 C137.901306,8.57871922 140.415094,9.93834754 140.960813,15.0673026 L143.341074,16.9428613 C143.341074,16.9428613 142.679245,12.9853717 141.564586,10.9337897 C141.564586,10.9337897 143.63135,12.7183019 144.002903,17.5073498 L145.448476,18.9519549 C145.448476,18.9519549 144.914369,16.0748843 144.693759,15.2615352 C144.473149,14.4481861 144.65312,14.3935582 144.65312,14.3935582 C145.576027,15.9681409 146.064283,17.7789803 146.063861,19.6256993 C146.063861,19.6256993 148.87373,22.7759096 149.076923,22.6180956 Z" id="Shape" opacity="0.1"></path>
                    <path d="M103.372506,23.5258279 C103.372506,23.5258279 81.6164121,21.0513961 83.4131554,36.8185692 C83.4131554,36.8185692 82.7644909,39.5509986 85.1352736,40.9230769 C85.1352736,40.9230769 85.2328603,39.7503604 87.4314313,40.2780829 C88.2084133,40.4488518 89.0017822,40.5294979 89.7964736,40.5184897 C90.8699199,40.4986876 91.9077869,40.1219778 92.7527766,39.4454542 L92.7527766,39.4454542 C92.7527766,39.4454542 99.0155465,37.1762478 101.937407,27.0615681 C101.937407,27.0615681 103.808776,24.9213605 103.768593,24.3408658 L100.008635,25.7598528 C100.008635,25.7598528 101.156713,28.5333273 100.008635,30.7380343 C100.008635,30.7380343 100.129183,25.8653973 99.4345953,25.9416238 C99.2910854,25.9416238 97.4771209,26.7859797 97.4771209,26.7859797 C97.4771209,26.7859797 99.4058933,31.6234352 97.6034096,34.9949951 C97.6034096,34.9949951 98.5103918,29.2017757 96.7825332,27.1143403 L94.11325,28.5216001 C94.11325,28.5216001 96.4094076,33.5349631 94.4863756,37.4283818 C94.4863756,37.4283818 95.2326268,31.3419832 93.5506913,28.873415 L91.1110239,30.6324898 C91.1110239,30.6324898 93.2464505,35.5637626 91.6333997,38.7945965 C91.6333997,38.7945965 91.7998712,31.6762074 90.5771672,31.0722585 C90.5771672,31.0722585 88.4302598,32.8313332 88.0800958,33.5584174 C88.0800958,33.5584174 89.5324155,37.1352027 88.4360002,38.9235953 C88.4360002,38.9235953 88.0513938,34.1565028 87.5462391,34.1095941 C87.5462391,34.1095941 85.3419278,37.1410663 85.0204658,39.2812738 C85.2195866,37.2970533 85.924173,35.4007474 87.064046,33.7812335 C85.872861,33.9493772 84.7556301,34.4690338 83.8494254,35.276447 C83.8494254,35.276447 84.2742145,33.0776036 87.6036431,33.0541493 C87.6036431,33.0541493 89.4118672,30.7614886 89.8998007,30.6383534 C89.8998007,30.6383534 86.6105549,30.1868575 84.5612342,30.9901683 C84.5612342,30.9901683 86.4268623,28.9848231 90.5255037,30.151676 L92.9422096,28.339829 C92.9422096,28.339829 88.5737697,27.4368373 86.7253628,28.0231956 C86.7253628,28.0231956 88.9411549,26.2641209 93.5679125,27.876606 L96.168311,26.4634827 C96.168311,26.4634827 92.5001992,25.4549465 90.2786667,25.6367175 C90.2786667,25.6367175 92.6724111,24.4640011 96.9260431,26.0882134 L98.77445,25.3552656 C98.77445,25.3552656 96.0822051,24.6692264 95.2900307,24.5402276 C94.4978564,24.4112288 94.4691544,24.1884127 94.4691544,24.1884127 C96.2045541,23.9850261 97.9611731,24.2773128 99.5436628,25.0327686 C99.5436628,25.0327686 103.412688,23.7720983 103.372506,23.5258279 Z" id="Shape" opacity="0.1"></path>
                    <path d="M291.927656,191.603131 C291.927656,191.603131 270.152555,189.126249 271.951818,204.891428 C271.951818,204.891428 271.302244,207.626563 273.67635,209 C273.67635,209 273.774074,207.826122 275.975728,208.348498 C276.752899,208.525227 277.548045,208.606021 278.344086,208.589143 C279.419571,208.572333 280.459807,208.194919 281.304534,207.515045 L281.304534,207.515045 C281.304534,207.515045 287.576085,205.243591 290.4733,195.124765 C290.4733,195.124765 292.347293,192.976568 292.307053,192.401368 L288.541823,193.815891 C288.541823,193.815891 289.691512,196.597981 288.541823,198.804871 C288.541823,198.804871 288.662541,193.92154 287.966979,194.003711 C287.823268,194.003711 286.00676,194.843034 286.00676,194.843034 C286.00676,194.843034 287.938237,199.68528 286.133226,203.060178 C286.133226,203.060178 287.04148,197.267091 285.311199,195.17172 L282.638173,196.586242 C282.638173,196.586242 284.93755,201.60457 283.01757,205.501844 C283.01757,205.501844 283.759119,199.409418 282.074825,196.932536 L279.631737,198.693353 C279.631737,198.693353 281.770158,203.629509 280.154845,206.857673 C280.154845,206.857673 280.32155,199.732235 279.097132,199.133557 C279.097132,199.133557 276.952963,200.894374 276.596559,201.622178 C276.596559,201.622178 278.056664,205.202505 276.952963,206.992669 C276.952963,206.992669 276.567817,202.220856 276.061954,202.173901 C276.061954,202.173901 273.854552,205.208375 273.532639,207.350702 C273.732039,205.364516 274.437614,203.466332 275.579085,201.845215 C274.385378,202.010519 273.265771,202.531066 272.359957,203.341909 C272.359957,203.341909 272.785342,201.135019 276.119439,201.111541 C276.119439,201.111541 277.935947,198.81661 278.418816,198.699222 C278.418816,198.699222 275.124958,198.24141 273.072764,199.045516 C273.072764,199.045516 274.941008,197.044055 279.051144,198.212063 L281.46549,196.398422 C281.46549,196.398422 277.142661,195.564969 275.262921,196.140169 C275.262921,196.140169 277.48182,194.379352 282.115064,195.987565 L284.719109,194.578911 C284.719109,194.578911 281.045854,193.569376 278.821207,193.751328 C278.821207,193.751328 281.218307,192.57745 285.477903,194.20327 L287.328902,193.463727 C287.328902,193.463727 284.632882,192.777009 283.839597,192.653752 C283.046312,192.530495 283.01757,192.301588 283.01757,192.301588 C284.75491,192.094306 286.514465,192.384929 288.099193,193.140911 C288.099193,193.140911 291.985141,191.855515 291.927656,191.603131 Z" id="Shape" opacity="0.1"></path>
                    <path d="M324.103906,210.602372 C324.103906,210.602372 302.304512,208.131252 304.105782,223.891249 C304.105782,223.891249 303.461238,226.626503 305.832238,228 C305.832238,228 305.930071,226.826071 308.134181,227.354339 C308.910873,227.526724 309.70472,227.605526 310.499427,227.589125 C311.570653,227.566766 312.606141,227.192072 313.451668,226.520849 L313.451668,226.520849 C313.451668,226.520849 319.724461,224.249297 322.624908,214.124159 C322.624908,214.124159 324.506746,211.981739 324.460707,211.400644 L320.691277,212.815229 C320.691277,212.815229 321.842248,215.59744 320.691277,217.804427 C320.691277,217.804427 320.812129,212.926752 320.115791,213.003057 C319.97192,213.003057 318.153385,213.842416 318.153385,213.842416 C318.153385,213.842416 320.087017,218.684873 318.279992,222.059919 C318.279992,222.059919 319.189259,216.26658 317.457048,214.176986 L314.78104,215.585701 C314.78104,215.585701 317.082982,220.604247 315.16086,224.501692 C315.16086,224.501692 315.903236,218.409 314.217064,215.93788 L311.77125,217.698773 C311.77125,217.698773 313.912056,222.635145 312.300697,225.869319 C312.300697,225.869319 312.461833,218.7377 311.236048,218.138996 C311.236048,218.138996 309.089487,219.89989 308.732686,220.627726 C308.732686,220.627726 310.194419,224.208209 309.089487,225.998451 C309.089487,225.998451 308.703912,221.22643 308.197484,221.179473 C308.197484,221.179473 305.98762,224.214079 305.671103,226.356499 C305.870332,224.371099 306.574568,222.473212 307.714076,220.850772 C306.51989,221.01909 305.399845,221.539284 304.491357,222.347532 C304.491357,222.347532 304.922971,220.140545 308.260788,220.122936 C308.260788,220.122936 310.073567,217.827905 310.56273,217.704643 C310.56273,217.704643 307.265198,217.25268 305.210714,218.056821 C305.210714,218.056821 307.081042,216.049403 311.195764,217.217462 L313.612804,215.403742 C313.612804,215.403742 309.285152,214.570252 307.403314,215.145478 C307.403314,215.145478 309.624689,213.384584 314.263102,214.998736 L316.870052,213.584152 C316.870052,213.584152 313.192699,212.574573 310.96557,212.756532 C310.96557,212.756532 313.365345,211.582603 317.629693,213.208495 L319.482757,212.474789 C319.482757,212.474789 316.783729,211.788041 315.995314,211.658908 C315.206899,211.529776 315.166615,211.30673 315.166615,211.30673 C316.906387,211.103133 318.667431,211.395722 320.253908,212.151959 C320.253908,212.151959 324.161455,210.854767 324.103906,210.602372 Z" id="Shape" opacity="0.1"></path>
                    <path d="M251.384615,40.4002181 C251.384615,40.4002181 233.844835,27.7490492 227.57488,41.4530968 C227.57488,41.4530968 225.661136,43.3649029 227.034664,45.6535287 C227.034664,45.6535287 227.68982,44.7613526 229.333456,46.2409242 C229.915636,46.7631731 230.559961,47.2170451 231.252947,47.5930421 C232.191725,48.0966162 233.275237,48.2911722 234.339075,48.1471888 L234.339075,48.1471888 C234.339075,48.1471888 240.867643,49.3607701 248.390439,42.5392243 C248.390439,42.5392243 251.068532,41.7080043 251.321399,41.2203552 L247.373224,40.5332133 C247.373224,40.5332133 246.959441,43.342737 244.919264,44.60065 C244.919264,44.60065 247.442188,40.6883744 246.787032,40.4057596 C246.654851,40.3448035 244.683637,40.1286862 244.683637,40.1286862 C244.683637,40.1286862 243.942277,45.01626 240.723969,46.8615685 C240.723969,46.8615685 244.384795,42.5890975 243.930783,40.0400228 L240.925113,39.8848617 C240.925113,39.8848617 240.413632,45.0882991 236.827517,47.3270517 C236.827517,47.3270517 240.49409,42.7331757 240.275704,39.8959446 L237.298769,40.1286862 C237.298769,40.1286862 236.724071,45.1880455 233.70116,47.0278125 C233.70116,47.0278125 237.379227,41.3090187 236.620626,40.2228912 C236.620626,40.2228912 233.902304,40.5941695 233.229908,41.0264039 C233.229908,41.0264039 232.71268,44.6505232 230.873646,45.5704067 C230.873646,45.5704067 232.908077,41.4974286 232.494294,41.2148138 C232.494294,41.2148138 229.086336,42.6057219 227.747289,44.1905815 C228.905622,42.6731217 230.454751,41.473552 232.241427,40.7105403 C231.129761,40.2650254 229.907481,40.1417762 228.724276,40.3558864 C228.724276,40.3558864 230.189756,38.7710269 233.074739,40.3835937 C233.074739,40.3835937 235.770073,39.4027541 236.229831,39.5246664 C236.229831,39.5246664 233.614955,37.5463627 231.448344,37.2027917 C231.448344,37.2027917 234.057473,36.482401 237.017167,39.4193785 L239.999849,39.1256807 C239.999849,39.1256807 236.689589,36.3549473 234.781592,35.8894641 C234.781592,35.8894641 237.557383,35.5514346 240.758451,39.1090563 L243.706651,39.2365101 C243.706651,39.2365101 241.040053,36.6209377 239.034357,35.6788883 C239.034357,35.6788883 241.677967,35.900547 244.54571,39.2974662 L246.50543,39.6022469 C246.50543,39.6022469 244.522722,37.7292311 243.902048,37.241582 C243.281375,36.7539329 243.373326,36.5932304 243.373326,36.5932304 C244.969863,37.2770156 246.338529,38.3742262 247.327248,39.7629494 C247.327248,39.7629494 251.309905,40.6274183 251.384615,40.4002181 Z" id="Shape" opacity="0.1"></path>
                    <path d="M266,135.19677 C266,135.19677 259.773572,113.840766 245.770029,121.507472 C245.770029,121.507472 242.964585,121.933077 242.615385,124.696589 C242.615385,124.696589 243.728092,124.352607 244.112805,126.585572 C244.255461,127.387778 244.493861,128.170566 244.823044,128.91765 C245.262052,129.922297 246.022874,130.757751 246.989272,131.29637 L246.989272,131.29637 C246.989272,131.29637 251.570313,136.310337 262.141035,135.19094 C262.141035,135.19094 264.875455,136.135431 265.396297,135.878903 L262.596772,132.882183 C262.596772,132.882183 260.448299,134.992713 257.962463,134.794486 C257.962463,134.794486 262.555341,133.045428 262.200222,132.421597 C262.129198,132.293333 260.649534,130.899916 260.649534,130.899916 C260.649534,130.899916 256.897105,134.549618 253.061815,134.124014 C253.061815,134.124014 258.820669,132.783069 260.087261,130.369369 L257.719798,128.398763 C257.719798,128.398763 253.943695,132.444918 249.55797,132.130087 C249.55797,132.130087 255.523976,130.515123 257.169363,128.002309 L254.576991,126.375685 C254.576991,126.375685 250.818644,130.252765 247.172751,129.961255 C247.172751,129.961255 253.87859,127.41346 253.961451,126.043364 C253.961451,126.043364 251.487452,124.690759 250.652921,124.644117 C250.652921,124.644117 247.888908,127.360988 245.787785,127.011176 C245.787785,127.011176 250.08473,124.836514 249.930845,124.346777 C249.930845,124.346777 246.237603,123.431437 244.112805,123.938664 C246.03724,123.376533 248.077191,123.318258 250.031462,123.769588 C249.405493,122.714648 248.479588,121.863387 247.368067,121.320906 C247.368067,121.320906 249.593482,120.883641 250.919261,124.002796 C250.919261,124.002796 253.766135,124.830683 254.062068,125.215476 C254.062068,125.215476 253.192025,121.956397 251.635418,120.341433 C251.635418,120.341433 254.239628,121.332566 254.766388,125.62359 L257.406109,127.203573 C257.406109,127.203573 256.482799,122.830927 255.204369,121.291755 C255.204369,121.291755 257.702042,122.708492 258.039406,127.652498 L260.406869,129.558971 C260.406869,129.558971 259.903783,125.734364 258.862099,123.728777 C258.862099,123.728777 260.892199,125.536137 261.057921,130.141991 L262.466562,131.59954 C262.466562,131.59954 262.052256,128.812707 261.874696,128.0198 C261.697136,127.226893 261.874696,127.11612 261.874696,127.11612 C262.75053,128.666905 263.170664,130.427302 263.088021,132.20005 C263.088021,132.20005 265.786928,135.336695 266,135.19677 Z" id="Shape" opacity="0.1"></path>
                    <path d="M131.538462,182.554553 C131.538462,182.554553 119.752648,163.049757 108.809091,174.723541 C108.809091,174.723541 106.305399,175.935772 106.743833,178.814821 C106.743833,178.814821 107.695698,178.148094 108.676407,180.269498 C109.028801,181.0213 109.466578,181.725482 109.980173,182.366657 C110.66802,183.241784 111.610559,183.855126 112.6627,184.11227 L112.6627,184.11227 C112.6627,184.11227 118.345043,187.797452 127.921376,183.627377 C127.921376,183.627377 130.742357,183.784967 131.157716,183.37887 L127.69639,181.196854 C127.69639,181.196854 126.271478,183.924374 123.888932,184.439572 C123.888932,184.439572 127.707928,181.408995 127.194498,180.851368 C127.096427,180.742268 125.319613,179.784605 125.319613,179.784605 C125.319613,179.784605 122.82169,184.500184 119.118072,185.185094 C119.118072,185.185094 124.131225,182.184822 124.650424,179.408814 L121.887132,178.12991 C121.887132,178.12991 119.481511,183.251586 115.293307,184.191065 C115.293307,184.191065 120.427607,180.863491 121.264094,177.881403 L118.379656,177.008596 C118.379656,177.008596 115.94519,181.96056 112.45502,182.718204 C112.45502,182.718204 118.016217,178.245072 117.710466,176.851006 C117.710466,176.851006 115.02217,176.214585 114.249141,176.408542 C114.249141,176.408542 112.420407,179.917951 110.35515,180.172519 C110.35515,180.172519 113.770324,176.76615 113.487649,176.317625 C113.487649,176.317625 109.778262,176.469154 107.932222,177.590467 C109.578923,176.469604 111.476468,175.821761 113.435729,175.711509 C112.558532,174.83921 111.457611,174.255593 110.268616,174.03257 C110.268616,174.03257 112.224265,172.959745 114.30683,175.687265 C114.30683,175.687265 117.191267,175.687265 117.58932,175.990322 C117.58932,175.990322 115.858657,172.959745 113.960697,171.826309 C113.960697,171.826309 116.672069,172.068755 118.35658,176.196402 L121.269863,177.008596 C121.269863,177.008596 119.187298,172.917317 117.566244,171.747514 C117.566244,171.747514 120.294923,172.438486 121.985203,177.281348 L124.708113,178.493579 C124.708113,178.493579 123.173592,174.826581 121.633302,173.111274 C121.633302,173.111274 124.033154,174.323505 125.469604,178.875432 L127.200267,179.924012 C127.200267,179.924012 126.046492,177.263165 125.636902,176.529765 C125.227311,175.796366 125.38884,175.626653 125.38884,175.626653 C126.637192,176.92221 127.518032,178.556994 127.932914,180.348293 C127.932914,180.348293 131.382702,182.760632 131.538462,182.554553 Z" id="Shape" opacity="0.1"></path>
                    <path d="M207.538462,87.9780173 C207.538462,87.9780173 196.269501,68.213836 184.919344,79.461156 C184.919344,79.461156 182.367443,80.6063816 182.727029,83.4634178 C182.727029,83.4634178 183.695592,82.8245025 184.623555,84.964266 C184.955389,85.7248947 185.374046,86.4412845 185.870507,87.0980019 C186.536519,87.9868624 187.46615,88.6224764 188.515204,88.9062527 L188.515204,88.9062527 C188.515204,88.9062527 194.111985,92.7517995 203.861405,88.9062527 C203.861405,88.9062527 206.691695,89.1533804 207.120878,88.7615927 L203.716411,86.4831967 C203.716411,86.4831967 202.208469,89.1413253 199.795764,89.581333 C199.795764,89.581333 203.72221,86.6700492 203.22923,86.1215465 C203.124834,86.007024 201.373302,84.9944035 201.373302,84.9944035 C201.373302,84.9944035 198.722805,89.6054431 194.993551,90.1660008 C194.993551,90.1660008 200.120551,87.3451296 200.717928,84.6086433 L197.980434,83.2705377 C197.980434,83.2705377 195.411135,88.2914475 191.1715,89.0931053 C191.1715,89.0931053 196.431895,85.9527764 197.359859,83.0173826 L194.49477,82.0529822 C194.49477,82.0529822 191.896472,86.8749843 188.370209,87.5380096 C188.370209,87.5380096 194.088786,83.2705377 193.821997,81.8781846 C193.821997,81.8781846 191.142501,81.1548843 190.342132,81.3236544 C190.342132,81.3236544 188.399208,84.7533034 186.317089,84.940156 C186.317089,84.940156 189.849152,81.6732495 189.582362,81.2151593 C189.582362,81.2151593 185.847308,81.2452968 183.962381,82.3001098 C185.650909,81.2416323 187.576179,80.6598645 189.547563,80.6124091 C188.690299,79.716403 187.599662,79.1004373 186.409886,78.8403233 C186.409886,78.8403233 188.410808,77.8337303 190.469727,80.6124091 C190.469727,80.6124091 193.369614,80.7148766 193.758199,81.0222792 C193.758199,81.0222792 192.116863,78.0085279 190.237736,76.7668623 C190.237736,76.7668623 192.952031,77.0923475 194.523769,81.2513243 L197.423656,82.1554497 C197.423656,82.1554497 195.457533,78.0205829 193.856795,76.8030274 C193.856795,76.8030274 196.582689,77.5805752 198.137028,82.4447699 L200.833923,83.752738 C200.833923,83.752738 199.401379,80.0578788 197.934036,78.3279855 C197.934036,78.3279855 200.306144,79.6118436 201.622692,84.1806906 L203.322026,85.2776961 C203.322026,85.2776961 202.231669,82.5954574 201.848883,81.8540746 C201.466098,81.1126918 201.628492,80.9499492 201.628492,80.9499492 C202.844229,82.2779331 203.681468,83.9305236 204.046998,85.7237313 C204.046998,85.7237313 207.370268,88.1769249 207.538462,87.9780173 Z" id="Shape"></path>
                    <path d="M138.843243,126.714905 C138.843243,126.714905 139.433032,105.445579 123.821329,108.443382 C123.821329,108.443382 121.025731,108.035859 119.846154,110.458664 C119.846154,110.458664 121.025731,110.458664 120.695449,112.607927 C120.587404,113.374295 120.575526,114.150072 120.660062,114.919082 C120.766681,115.962158 121.233011,116.943031 121.987086,117.710332 L121.987086,117.710332 C121.987086,117.710332 124.800378,123.594287 135.186554,125.592822 C135.186554,125.592822 137.492627,127.23966 138.07062,127.15034 L136.301255,123.6222 C136.301255,123.6222 133.617717,124.928505 131.311643,124.040887 C131.311643,124.040887 136.206888,123.767345 136.071237,123.08628 C136.071237,122.946717 135.056801,121.249637 135.056801,121.249637 C135.056801,121.249637 130.37388,123.51055 126.864638,122.025605 C126.864638,122.025605 132.762523,122.444292 134.691132,120.60765 L133.045622,118.134602 C133.045622,118.134602 128.221151,120.747212 124.15161,119.206442 C124.15161,119.206442 130.314901,119.440907 132.650463,117.615429 L130.686468,115.382429 C130.686468,115.382429 125.926874,117.849894 122.553283,116.543589 C122.553283,116.543589 129.701521,116.136067 130.220535,114.902334 C130.220535,114.902334 128.286028,112.965207 127.507507,112.669334 C127.507507,112.669334 124.051346,114.344084 122.164023,113.439719 C122.164023,113.439719 126.882331,112.691664 126.911821,112.194822 C126.911821,112.194822 123.685677,110.302354 121.509358,110.162792 C123.51617,110.196752 125.478529,110.727994 127.200817,111.703562 C126.932109,110.5625 126.317141,109.520571 125.431451,108.705759 C125.431451,108.705759 127.678546,108.945807 127.985236,112.166909 C127.985236,112.166909 130.444654,113.741174 130.603897,114.176609 C130.603897,114.176609 130.774936,110.955507 129.789989,109.035127 C129.789989,109.035127 131.960411,110.681964 131.146503,114.746024 L133.169477,116.945529 C133.169477,116.945529 133.629512,112.691664 132.892277,110.922012 C132.892277,110.922012 134.826783,112.926129 133.63541,117.537274 L135.269125,119.943332 C135.269125,119.943332 135.965075,116.309124 135.593508,114.171027 C135.593508,114.171027 136.961818,116.404027 135.711466,120.65231 L136.607945,122.382885 C136.607945,122.382885 137.062082,119.720032 137.121061,118.944065 C137.18004,118.168097 137.404159,118.117854 137.404159,118.117854 C137.759195,119.783167 137.618302,121.509105 136.997205,123.103027 C136.997205,123.103027 138.583736,126.787477 138.843243,126.714905 Z" id="Shape"></path>
                </g>
                <g id="pattern" transform="translate(607.000000, 89.000000)">
                    <mask id="mask-4" fill="white">
                        <use xlink:href="#path-3"></use>
                    </mask>
                    <use id="Mask" fill="url(#linearGradient-2)" xlink:href="#path-3"></use>
                </g>
                <g id="Group-3-Copy-3" transform="translate(215.500000, 229.000000) scale(1, -1) translate(-215.500000, -229.000000) translate(53.000000, 115.000000)" fill="#00BC87" fill-rule="nonzero">
                    <path d="M202.755532,133.027607 C202.755532,133.027607 180.279602,131.743179 182.905737,146.696394 C182.905737,146.696394 182.379327,149.338166 184.904912,150.538462 C184.904912,150.538462 184.946315,149.41669 187.217567,149.803701 C188.024297,149.932451 188.844272,149.970106 189.660346,149.915878 C190.753293,149.840735 191.791031,149.43136 192.617705,148.749236 L192.617705,148.749236 C192.617705,148.749236 198.946454,146.270121 201.406976,136.465837 C201.406976,136.465837 203.222795,134.328862 203.151818,133.779194 L199.354569,135.316021 C199.354569,135.316021 200.649892,137.912922 199.632561,140.072333 C199.632561,140.072333 199.508352,135.411372 198.780841,135.51794 C198.632973,135.51794 196.805325,136.420966 196.805325,136.420966 C196.805325,136.420966 199.041089,140.947314 197.355394,144.234105 C197.355394,144.234105 197.994184,138.6589 196.107389,136.74628 L193.46351,138.210192 C193.46351,138.210192 196.0719,142.88237 194.3034,146.696394 C194.3034,146.696394 194.758833,140.846355 192.901611,138.569159 L190.482491,140.363993 C190.482491,140.363993 192.931185,144.968866 191.440676,148.132261 C191.440676,148.132261 191.24549,141.323108 189.956081,140.807093 C189.956081,140.807093 187.838612,142.579492 187.513303,143.308644 C187.513303,143.308644 189.193083,146.673958 188.152092,148.418313 C188.152092,148.418313 187.513303,143.880747 186.969149,143.858312 C186.969149,143.858312 184.857594,146.86466 184.63875,148.906284 C184.744423,147.002692 185.372376,145.158248 186.460483,143.555433 C185.241978,143.774306 184.117457,144.326011 183.225132,145.14274 C183.225132,145.14274 183.556356,143.016983 186.980978,142.831891 C186.980978,142.831891 188.72582,140.549086 189.193083,140.408864 C189.193083,140.408864 185.786205,140.139639 183.721968,141.009012 C183.721968,141.009012 185.537787,139.00665 189.814128,139.915285 L192.180016,138.064361 C192.180016,138.064361 187.690744,137.503476 185.79212,138.126059 C185.79212,138.126059 187.980566,136.35366 192.82472,137.643697 L195.427196,136.168567 C195.427196,136.168567 191.600373,135.388936 189.323207,135.669379 C189.323207,135.669379 191.730497,134.441039 196.190195,135.770339 L198.053331,134.97949 C198.053331,134.97949 195.249754,134.457866 194.427609,134.373733 C193.605463,134.2896 193.56406,134.076463 193.56406,134.076463 C195.339643,133.796364 197.162398,133.990577 198.828159,134.637349 C198.828159,134.637349 202.826509,133.263179 202.755532,133.027607 Z" id="Shape" opacity="0.1"></path>
                    <path d="M72.2810752,119.59248 C72.2810752,119.59248 77.4363803,98.2089592 61.5050148,98.1340103 C61.5050148,98.1340103 58.8596068,97.1654388 57.1922339,99.3793164 C57.1922339,99.3793164 58.3293469,99.615694 57.5575241,101.725796 C57.2905858,102.471952 57.1126524,103.245791 57.0272641,104.031919 C56.9131381,105.103581 57.1592904,106.182429 57.7283856,107.104827 L57.7283856,107.104827 C57.7283856,107.104827 59.2190053,113.619623 68.9227623,117.70146 C68.9227623,117.70146 70.8316981,119.823093 71.4090922,119.846154 L70.4664079,115.931511 C70.4664079,115.931511 67.55587,116.721358 65.4937479,115.35498 C65.4937479,115.35498 70.3426806,116.052582 70.3485723,115.35498 C70.3485723,115.210848 69.7593946,113.302531 69.7593946,113.302531 C69.7593946,113.302531 64.698358,114.651613 61.5757161,112.455031 C61.5757161,112.455031 67.237714,114.046256 69.5413989,112.576103 L68.480879,109.739572 C68.480879,109.739572 63.1782795,111.428807 59.5489448,109.059266 C59.5489448,109.059266 65.5290986,110.523654 68.2039654,109.13998 L66.76048,106.49947 C66.76048,106.49947 61.5757161,108.044572 58.5532344,106.055541 C58.5532344,106.055541 65.623367,107.058704 66.3892981,105.917174 C66.3892981,105.917174 64.9163538,103.570694 64.2152323,103.132531 C64.2152323,103.132531 60.468062,104.158755 58.8183644,102.850031 C58.8183644,102.850031 63.6201628,103.028755 63.7321066,102.532939 C63.7321066,102.532939 60.9806466,99.9789083 58.883174,99.4023777 C60.8378183,99.8378698 62.6429399,100.763775 64.1209639,102.08901 C64.0993579,100.880719 63.7185589,99.7047473 63.0250933,98.7047756 C63.0250933,98.7047756 65.1697002,99.3966123 64.7926265,102.74049 C64.7926265,102.74049 66.8547485,104.816 66.919558,105.288755 C66.919558,105.288755 67.7738657,102.065949 67.2259304,99.9270205 C67.2259304,99.9270205 68.9934636,102.025592 67.3260906,105.974827 L68.8343856,108.598041 C68.8343856,108.598041 70.2012779,104.389368 69.853663,102.452225 C69.853663,102.452225 71.3207156,104.862123 69.1584333,109.289878 L70.2484121,112.05146 C70.2484121,112.05146 71.7036811,108.511562 71.7979495,106.286153 C71.7979495,106.286153 72.6640408,108.811358 70.5253256,112.864368 L71.0320185,114.78998 C71.0320185,114.78998 72.0454042,112.189827 72.2692917,111.417276 C72.4931792,110.644725 72.7229585,110.63896 72.7229585,110.63896 C72.7139797,112.392926 72.2059838,114.109788 71.255906,115.597123 C71.255906,115.597123 72.0277288,119.621307 72.2810752,119.59248 Z" id="Shape" opacity="0.1"></path>
                    <path d="M24.8461538,126.630987 C24.8461538,126.630987 7.30637296,113.979818 1.03641853,127.683866 C1.03641853,127.683866 -0.877325586,129.595672 0.496202471,131.884298 C0.496202471,131.884298 1.15135811,130.992122 2.7949942,132.471693 C3.3771748,132.993942 4.02149963,133.447814 4.71448529,133.823811 C5.65311878,134.327771 6.73676582,134.522352 7.80061319,134.377958 L7.80061319,134.377958 C7.80061319,134.377958 14.3291817,135.591539 21.8462306,128.769994 C21.8462306,128.769994 24.53007,127.938774 24.7829371,127.451124 L20.8232683,126.780607 C20.8232683,126.780607 20.4094858,129.590131 18.3693082,130.848044 C18.3693082,130.848044 20.8922321,126.935768 20.2370764,126.653153 C20.1048959,126.592197 18.127935,126.37608 18.127935,126.37608 C18.127935,126.37608 17.3923217,131.263654 14.1740133,133.108962 C14.1740133,133.108962 17.8348391,128.836491 17.3808277,126.287416 L14.3751575,126.132255 C14.3751575,126.132255 13.8636764,131.335693 10.2775613,133.574445 C10.2775613,133.574445 13.9383871,128.980569 13.7257489,126.143338 L10.7488136,126.37608 C10.7488136,126.37608 10.1453807,131.435439 7.15120452,133.275206 C7.15120452,133.275206 10.8235243,127.556412 10.07067,126.470285 C10.07067,126.470285 7.3523488,126.841563 6.67995222,127.273798 C6.67995222,127.273798 6.1569771,130.897917 4.31794372,131.8178 C4.31794372,131.8178 6.35812138,127.744822 5.94433887,127.462207 C5.94433887,127.462207 2.53638013,128.853116 1.19733395,130.437975 C2.35566683,128.920515 3.90479541,127.720946 5.69147178,126.957934 C4.57980522,126.512419 3.35752561,126.38917 2.17432043,126.60328 C2.17432043,126.60328 3.63405318,125.01842 6.5190368,126.630987 C6.5190368,126.630987 9.22011708,125.650148 9.67987542,125.77206 C9.67987542,125.77206 7.06499983,123.793756 4.89838863,123.450185 C4.89838863,123.450185 7.50751724,122.729795 10.4672116,125.666772 L13.4498939,125.373074 C13.4498939,125.373074 10.1338868,122.602341 8.23163663,122.136858 C8.23163663,122.136858 11.0074276,121.798828 14.2084951,125.35645 L17.1509485,125.483904 C17.1509485,125.483904 14.4900971,122.868331 12.4844013,121.926282 C12.4844013,121.926282 15.1222648,122.147941 17.9957545,125.54486 L19.9554744,125.849641 C19.9554744,125.849641 17.9727666,123.976625 17.3520928,123.488976 C16.731419,123.001327 16.8176237,122.796292 16.8176237,122.796292 C18.416426,123.478964 19.7872359,124.576299 20.7772925,125.966011 C20.7772925,125.966011 24.7714431,126.858187 24.8461538,126.630987 Z" id="Shape" opacity="0.1"></path>
                    <path d="M81.8461538,5.32704207 C81.8461538,5.32704207 64.306373,-7.33273266 58.0364185,6.3801757 C58.0364185,6.3801757 56.1226744,8.29244465 57.4962025,10.5816246 C57.4962025,10.5816246 58.1513581,9.6892324 59.7949942,11.1691623 C60.3802247,11.6888395 61.0263415,12.1408649 61.7202323,12.5160648 C62.658721,13.0205338 63.7425034,13.2151854 64.8063602,13.0703456 L64.8063602,13.0703456 C64.8063602,13.0703456 71.3349287,14.2842207 78.8519776,7.45548056 C78.8519776,7.45548056 81.535817,6.62960208 81.7829371,6.13629212 L77.8232683,5.4766979 C77.8232683,5.4766979 77.4152328,8.28690184 75.3693082,9.54511938 C75.3693082,9.54511938 77.8979791,5.63189654 77.2428234,5.34921331 C77.1106429,5.28824241 75.133682,5.07207288 75.133682,5.07207288 C75.133682,5.07207288 74.3750807,9.97191564 71.1567723,11.8065853 C71.1567723,11.8065853 74.8118512,7.53307987 74.3635868,4.98338794 L71.3579166,4.8281893 C71.3579166,4.8281893 70.8406884,10.0328865 67.2603203,12.2666384 C67.2603203,12.2666384 70.9211462,7.67165009 70.7085079,4.83373211 L67.7373196,5.06653007 C67.7373196,5.06653007 67.1281398,10.1326571 64.1339636,11.9728695 C64.1339636,11.9728695 67.8120303,6.2526911 67.0591761,5.16630062 C67.0591761,5.16630062 64.3408548,5.5376688 63.6684583,5.97000786 C63.6684583,5.97000786 63.1454831,9.59500466 61.3064498,10.5151109 C61.3064498,10.5151109 63.3466274,6.44114659 62.9328449,6.15292055 C62.9328449,6.15292055 59.5248862,7.5497083 58.18584,9.13495155 C59.3424222,7.61550651 60.8920415,6.41526638 62.6799778,5.65406778 C61.5671695,5.20513095 60.3420366,5.08176567 59.1570795,5.29932803 C59.1570795,5.29932803 60.6225592,3.71408478 63.5075428,5.32704207 C63.5075428,5.32704207 66.2086231,4.34042215 66.6683815,4.46790675 C66.6683815,4.46790675 64.0535059,2.48912409 61.8868947,2.13992716 C61.8868947,2.13992716 64.4902763,1.42490485 67.4499707,4.35705058 L70.4326529,4.06328172 C70.4326529,4.06328172 67.1223928,1.29187745 65.2143957,0.820738721 C65.2143957,0.820738721 67.9901867,0.488170208 71.1970012,4.0466533 L74.1394546,4.16859509 C74.1394546,4.16859509 71.4786032,1.55238945 69.4671604,0.615654805 C69.4671604,0.615654805 72.1107709,0.837367147 74.9842605,4.23510879 L76.9382335,4.53996326 C76.9382335,4.53996326 74.9497787,2.6886652 74.3291049,2.21198367 C73.7084311,1.73530213 73.7946358,1.52467541 73.7946358,1.52467541 C75.3939199,2.20676272 76.7649236,3.30451834 77.7543046,4.6951619 C77.7543046,4.6951619 81.7484552,5.5376688 81.8461538,5.32704207 Z" id="Shape" opacity="0.1"></path>
                    <path d="M149.076923,22.6180956 C149.076923,22.6180956 141.994194,0.700158689 128.635704,9.3131613 C128.635704,9.3131613 125.907112,9.92013823 125.692308,12.7789996 C125.692308,12.7789996 126.766328,12.3662553 127.24238,14.6727676 C127.419245,15.4932303 127.686131,16.2895974 128.037736,17.0460474 C128.517554,18.0640782 129.299632,18.8924017 130.267054,19.4071876 L130.267054,19.4071876 C130.267054,19.4071876 134.981132,24.4147473 145.291727,22.7577003 C145.291727,22.7577003 148.014514,23.6196075 148.513788,23.3221888 L145.61103,20.3419321 C145.61103,20.3419321 143.602322,22.6302351 141.152395,22.5391886 C141.152395,22.5391886 145.582003,20.5240252 145.216255,19.8745599 C145.140784,19.7470947 143.625544,18.3692571 143.625544,18.3692571 C143.625544,18.3692571 140.107402,22.3328164 136.333817,22.0718163 C136.333817,22.0718163 141.912917,20.4086996 143.050798,17.8229778 L140.647315,15.8867214 C140.647315,15.8867214 137.129173,20.2690949 132.815675,20.1355599 C132.815675,20.1355599 138.62119,18.187164 140.089985,15.4921864 L137.477504,13.9201162 C137.477504,13.9201162 133.994194,18.1264663 130.383164,17.9929314 C130.383164,17.9929314 136.838897,15.0369537 136.856313,13.6044882 C136.856313,13.6044882 134.377358,12.3116273 133.558781,12.2994878 C133.558781,12.2994878 130.969521,15.2554654 128.914369,14.9883956 C128.914369,14.9883956 133.024673,12.530139 132.850508,12.0263482 C132.850508,12.0263482 129.193033,11.2433479 127.132075,11.8746039 C128.996145,11.1960398 130.997566,11.0391007 132.937591,11.4193712 C132.275112,10.3504746 131.328899,9.50673687 130.214804,8.99146353 C130.214804,8.99146353 132.374456,8.43911453 133.820029,11.6196736 C133.820029,11.6196736 136.65312,12.3541157 136.955007,12.7365112 C136.955007,12.7365112 135.956459,9.3920683 134.359942,7.77750968 C134.359942,7.77750968 136.955007,8.69404484 137.66328,13.1310462 L140.322206,14.6484885 C140.322206,14.6484885 139.224964,10.1507895 137.901306,8.57871922 C137.901306,8.57871922 140.415094,9.93834754 140.960813,15.0673026 L143.341074,16.9428613 C143.341074,16.9428613 142.679245,12.9853717 141.564586,10.9337897 C141.564586,10.9337897 143.63135,12.7183019 144.002903,17.5073498 L145.448476,18.9519549 C145.448476,18.9519549 144.914369,16.0748843 144.693759,15.2615352 C144.473149,14.4481861 144.65312,14.3935582 144.65312,14.3935582 C145.576027,15.9681409 146.064283,17.7789803 146.063861,19.6256993 C146.063861,19.6256993 148.87373,22.7759096 149.076923,22.6180956 Z" id="Shape" opacity="0.1"></path>
                    <path d="M103.372506,23.5258279 C103.372506,23.5258279 81.6164121,21.0513961 83.4131554,36.8185692 C83.4131554,36.8185692 82.7644909,39.5509986 85.1352736,40.9230769 C85.1352736,40.9230769 85.2328603,39.7503604 87.4314313,40.2780829 C88.2084133,40.4488518 89.0017822,40.5294979 89.7964736,40.5184897 C90.8699199,40.4986876 91.9077869,40.1219778 92.7527766,39.4454542 L92.7527766,39.4454542 C92.7527766,39.4454542 99.0155465,37.1762478 101.937407,27.0615681 C101.937407,27.0615681 103.808776,24.9213605 103.768593,24.3408658 L100.008635,25.7598528 C100.008635,25.7598528 101.156713,28.5333273 100.008635,30.7380343 C100.008635,30.7380343 100.129183,25.8653973 99.4345953,25.9416238 C99.2910854,25.9416238 97.4771209,26.7859797 97.4771209,26.7859797 C97.4771209,26.7859797 99.4058933,31.6234352 97.6034096,34.9949951 C97.6034096,34.9949951 98.5103918,29.2017757 96.7825332,27.1143403 L94.11325,28.5216001 C94.11325,28.5216001 96.4094076,33.5349631 94.4863756,37.4283818 C94.4863756,37.4283818 95.2326268,31.3419832 93.5506913,28.873415 L91.1110239,30.6324898 C91.1110239,30.6324898 93.2464505,35.5637626 91.6333997,38.7945965 C91.6333997,38.7945965 91.7998712,31.6762074 90.5771672,31.0722585 C90.5771672,31.0722585 88.4302598,32.8313332 88.0800958,33.5584174 C88.0800958,33.5584174 89.5324155,37.1352027 88.4360002,38.9235953 C88.4360002,38.9235953 88.0513938,34.1565028 87.5462391,34.1095941 C87.5462391,34.1095941 85.3419278,37.1410663 85.0204658,39.2812738 C85.2195866,37.2970533 85.924173,35.4007474 87.064046,33.7812335 C85.872861,33.9493772 84.7556301,34.4690338 83.8494254,35.276447 C83.8494254,35.276447 84.2742145,33.0776036 87.6036431,33.0541493 C87.6036431,33.0541493 89.4118672,30.7614886 89.8998007,30.6383534 C89.8998007,30.6383534 86.6105549,30.1868575 84.5612342,30.9901683 C84.5612342,30.9901683 86.4268623,28.9848231 90.5255037,30.151676 L92.9422096,28.339829 C92.9422096,28.339829 88.5737697,27.4368373 86.7253628,28.0231956 C86.7253628,28.0231956 88.9411549,26.2641209 93.5679125,27.876606 L96.168311,26.4634827 C96.168311,26.4634827 92.5001992,25.4549465 90.2786667,25.6367175 C90.2786667,25.6367175 92.6724111,24.4640011 96.9260431,26.0882134 L98.77445,25.3552656 C98.77445,25.3552656 96.0822051,24.6692264 95.2900307,24.5402276 C94.4978564,24.4112288 94.4691544,24.1884127 94.4691544,24.1884127 C96.2045541,23.9850261 97.9611731,24.2773128 99.5436628,25.0327686 C99.5436628,25.0327686 103.412688,23.7720983 103.372506,23.5258279 Z" id="Shape" opacity="0.1"></path>
                    <path d="M291.927656,191.603131 C291.927656,191.603131 270.152555,189.126249 271.951818,204.891428 C271.951818,204.891428 271.302244,207.626563 273.67635,209 C273.67635,209 273.774074,207.826122 275.975728,208.348498 C276.752899,208.525227 277.548045,208.606021 278.344086,208.589143 C279.419571,208.572333 280.459807,208.194919 281.304534,207.515045 L281.304534,207.515045 C281.304534,207.515045 287.576085,205.243591 290.4733,195.124765 C290.4733,195.124765 292.347293,192.976568 292.307053,192.401368 L288.541823,193.815891 C288.541823,193.815891 289.691512,196.597981 288.541823,198.804871 C288.541823,198.804871 288.662541,193.92154 287.966979,194.003711 C287.823268,194.003711 286.00676,194.843034 286.00676,194.843034 C286.00676,194.843034 287.938237,199.68528 286.133226,203.060178 C286.133226,203.060178 287.04148,197.267091 285.311199,195.17172 L282.638173,196.586242 C282.638173,196.586242 284.93755,201.60457 283.01757,205.501844 C283.01757,205.501844 283.759119,199.409418 282.074825,196.932536 L279.631737,198.693353 C279.631737,198.693353 281.770158,203.629509 280.154845,206.857673 C280.154845,206.857673 280.32155,199.732235 279.097132,199.133557 C279.097132,199.133557 276.952963,200.894374 276.596559,201.622178 C276.596559,201.622178 278.056664,205.202505 276.952963,206.992669 C276.952963,206.992669 276.567817,202.220856 276.061954,202.173901 C276.061954,202.173901 273.854552,205.208375 273.532639,207.350702 C273.732039,205.364516 274.437614,203.466332 275.579085,201.845215 C274.385378,202.010519 273.265771,202.531066 272.359957,203.341909 C272.359957,203.341909 272.785342,201.135019 276.119439,201.111541 C276.119439,201.111541 277.935947,198.81661 278.418816,198.699222 C278.418816,198.699222 275.124958,198.24141 273.072764,199.045516 C273.072764,199.045516 274.941008,197.044055 279.051144,198.212063 L281.46549,196.398422 C281.46549,196.398422 277.142661,195.564969 275.262921,196.140169 C275.262921,196.140169 277.48182,194.379352 282.115064,195.987565 L284.719109,194.578911 C284.719109,194.578911 281.045854,193.569376 278.821207,193.751328 C278.821207,193.751328 281.218307,192.57745 285.477903,194.20327 L287.328902,193.463727 C287.328902,193.463727 284.632882,192.777009 283.839597,192.653752 C283.046312,192.530495 283.01757,192.301588 283.01757,192.301588 C284.75491,192.094306 286.514465,192.384929 288.099193,193.140911 C288.099193,193.140911 291.985141,191.855515 291.927656,191.603131 Z" id="Shape" opacity="0.1"></path>
                    <path d="M324.103906,210.602372 C324.103906,210.602372 302.304512,208.131252 304.105782,223.891249 C304.105782,223.891249 303.461238,226.626503 305.832238,228 C305.832238,228 305.930071,226.826071 308.134181,227.354339 C308.910873,227.526724 309.70472,227.605526 310.499427,227.589125 C311.570653,227.566766 312.606141,227.192072 313.451668,226.520849 L313.451668,226.520849 C313.451668,226.520849 319.724461,224.249297 322.624908,214.124159 C322.624908,214.124159 324.506746,211.981739 324.460707,211.400644 L320.691277,212.815229 C320.691277,212.815229 321.842248,215.59744 320.691277,217.804427 C320.691277,217.804427 320.812129,212.926752 320.115791,213.003057 C319.97192,213.003057 318.153385,213.842416 318.153385,213.842416 C318.153385,213.842416 320.087017,218.684873 318.279992,222.059919 C318.279992,222.059919 319.189259,216.26658 317.457048,214.176986 L314.78104,215.585701 C314.78104,215.585701 317.082982,220.604247 315.16086,224.501692 C315.16086,224.501692 315.903236,218.409 314.217064,215.93788 L311.77125,217.698773 C311.77125,217.698773 313.912056,222.635145 312.300697,225.869319 C312.300697,225.869319 312.461833,218.7377 311.236048,218.138996 C311.236048,218.138996 309.089487,219.89989 308.732686,220.627726 C308.732686,220.627726 310.194419,224.208209 309.089487,225.998451 C309.089487,225.998451 308.703912,221.22643 308.197484,221.179473 C308.197484,221.179473 305.98762,224.214079 305.671103,226.356499 C305.870332,224.371099 306.574568,222.473212 307.714076,220.850772 C306.51989,221.01909 305.399845,221.539284 304.491357,222.347532 C304.491357,222.347532 304.922971,220.140545 308.260788,220.122936 C308.260788,220.122936 310.073567,217.827905 310.56273,217.704643 C310.56273,217.704643 307.265198,217.25268 305.210714,218.056821 C305.210714,218.056821 307.081042,216.049403 311.195764,217.217462 L313.612804,215.403742 C313.612804,215.403742 309.285152,214.570252 307.403314,215.145478 C307.403314,215.145478 309.624689,213.384584 314.263102,214.998736 L316.870052,213.584152 C316.870052,213.584152 313.192699,212.574573 310.96557,212.756532 C310.96557,212.756532 313.365345,211.582603 317.629693,213.208495 L319.482757,212.474789 C319.482757,212.474789 316.783729,211.788041 315.995314,211.658908 C315.206899,211.529776 315.166615,211.30673 315.166615,211.30673 C316.906387,211.103133 318.667431,211.395722 320.253908,212.151959 C320.253908,212.151959 324.161455,210.854767 324.103906,210.602372 Z" id="Shape" opacity="0.1"></path>
                    <path d="M251.384615,40.4002181 C251.384615,40.4002181 233.844835,27.7490492 227.57488,41.4530968 C227.57488,41.4530968 225.661136,43.3649029 227.034664,45.6535287 C227.034664,45.6535287 227.68982,44.7613526 229.333456,46.2409242 C229.915636,46.7631731 230.559961,47.2170451 231.252947,47.5930421 C232.191725,48.0966162 233.275237,48.2911722 234.339075,48.1471888 L234.339075,48.1471888 C234.339075,48.1471888 240.867643,49.3607701 248.390439,42.5392243 C248.390439,42.5392243 251.068532,41.7080043 251.321399,41.2203552 L247.373224,40.5332133 C247.373224,40.5332133 246.959441,43.342737 244.919264,44.60065 C244.919264,44.60065 247.442188,40.6883744 246.787032,40.4057596 C246.654851,40.3448035 244.683637,40.1286862 244.683637,40.1286862 C244.683637,40.1286862 243.942277,45.01626 240.723969,46.8615685 C240.723969,46.8615685 244.384795,42.5890975 243.930783,40.0400228 L240.925113,39.8848617 C240.925113,39.8848617 240.413632,45.0882991 236.827517,47.3270517 C236.827517,47.3270517 240.49409,42.7331757 240.275704,39.8959446 L237.298769,40.1286862 C237.298769,40.1286862 236.724071,45.1880455 233.70116,47.0278125 C233.70116,47.0278125 237.379227,41.3090187 236.620626,40.2228912 C236.620626,40.2228912 233.902304,40.5941695 233.229908,41.0264039 C233.229908,41.0264039 232.71268,44.6505232 230.873646,45.5704067 C230.873646,45.5704067 232.908077,41.4974286 232.494294,41.2148138 C232.494294,41.2148138 229.086336,42.6057219 227.747289,44.1905815 C228.905622,42.6731217 230.454751,41.473552 232.241427,40.7105403 C231.129761,40.2650254 229.907481,40.1417762 228.724276,40.3558864 C228.724276,40.3558864 230.189756,38.7710269 233.074739,40.3835937 C233.074739,40.3835937 235.770073,39.4027541 236.229831,39.5246664 C236.229831,39.5246664 233.614955,37.5463627 231.448344,37.2027917 C231.448344,37.2027917 234.057473,36.482401 237.017167,39.4193785 L239.999849,39.1256807 C239.999849,39.1256807 236.689589,36.3549473 234.781592,35.8894641 C234.781592,35.8894641 237.557383,35.5514346 240.758451,39.1090563 L243.706651,39.2365101 C243.706651,39.2365101 241.040053,36.6209377 239.034357,35.6788883 C239.034357,35.6788883 241.677967,35.900547 244.54571,39.2974662 L246.50543,39.6022469 C246.50543,39.6022469 244.522722,37.7292311 243.902048,37.241582 C243.281375,36.7539329 243.373326,36.5932304 243.373326,36.5932304 C244.969863,37.2770156 246.338529,38.3742262 247.327248,39.7629494 C247.327248,39.7629494 251.309905,40.6274183 251.384615,40.4002181 Z" id="Shape" opacity="0.1"></path>
                    <path d="M266,135.19677 C266,135.19677 259.773572,113.840766 245.770029,121.507472 C245.770029,121.507472 242.964585,121.933077 242.615385,124.696589 C242.615385,124.696589 243.728092,124.352607 244.112805,126.585572 C244.255461,127.387778 244.493861,128.170566 244.823044,128.91765 C245.262052,129.922297 246.022874,130.757751 246.989272,131.29637 L246.989272,131.29637 C246.989272,131.29637 251.570313,136.310337 262.141035,135.19094 C262.141035,135.19094 264.875455,136.135431 265.396297,135.878903 L262.596772,132.882183 C262.596772,132.882183 260.448299,134.992713 257.962463,134.794486 C257.962463,134.794486 262.555341,133.045428 262.200222,132.421597 C262.129198,132.293333 260.649534,130.899916 260.649534,130.899916 C260.649534,130.899916 256.897105,134.549618 253.061815,134.124014 C253.061815,134.124014 258.820669,132.783069 260.087261,130.369369 L257.719798,128.398763 C257.719798,128.398763 253.943695,132.444918 249.55797,132.130087 C249.55797,132.130087 255.523976,130.515123 257.169363,128.002309 L254.576991,126.375685 C254.576991,126.375685 250.818644,130.252765 247.172751,129.961255 C247.172751,129.961255 253.87859,127.41346 253.961451,126.043364 C253.961451,126.043364 251.487452,124.690759 250.652921,124.644117 C250.652921,124.644117 247.888908,127.360988 245.787785,127.011176 C245.787785,127.011176 250.08473,124.836514 249.930845,124.346777 C249.930845,124.346777 246.237603,123.431437 244.112805,123.938664 C246.03724,123.376533 248.077191,123.318258 250.031462,123.769588 C249.405493,122.714648 248.479588,121.863387 247.368067,121.320906 C247.368067,121.320906 249.593482,120.883641 250.919261,124.002796 C250.919261,124.002796 253.766135,124.830683 254.062068,125.215476 C254.062068,125.215476 253.192025,121.956397 251.635418,120.341433 C251.635418,120.341433 254.239628,121.332566 254.766388,125.62359 L257.406109,127.203573 C257.406109,127.203573 256.482799,122.830927 255.204369,121.291755 C255.204369,121.291755 257.702042,122.708492 258.039406,127.652498 L260.406869,129.558971 C260.406869,129.558971 259.903783,125.734364 258.862099,123.728777 C258.862099,123.728777 260.892199,125.536137 261.057921,130.141991 L262.466562,131.59954 C262.466562,131.59954 262.052256,128.812707 261.874696,128.0198 C261.697136,127.226893 261.874696,127.11612 261.874696,127.11612 C262.75053,128.666905 263.170664,130.427302 263.088021,132.20005 C263.088021,132.20005 265.786928,135.336695 266,135.19677 Z" id="Shape" opacity="0.1"></path>
                    <path d="M131.538462,182.554553 C131.538462,182.554553 119.752648,163.049757 108.809091,174.723541 C108.809091,174.723541 106.305399,175.935772 106.743833,178.814821 C106.743833,178.814821 107.695698,178.148094 108.676407,180.269498 C109.028801,181.0213 109.466578,181.725482 109.980173,182.366657 C110.66802,183.241784 111.610559,183.855126 112.6627,184.11227 L112.6627,184.11227 C112.6627,184.11227 118.345043,187.797452 127.921376,183.627377 C127.921376,183.627377 130.742357,183.784967 131.157716,183.37887 L127.69639,181.196854 C127.69639,181.196854 126.271478,183.924374 123.888932,184.439572 C123.888932,184.439572 127.707928,181.408995 127.194498,180.851368 C127.096427,180.742268 125.319613,179.784605 125.319613,179.784605 C125.319613,179.784605 122.82169,184.500184 119.118072,185.185094 C119.118072,185.185094 124.131225,182.184822 124.650424,179.408814 L121.887132,178.12991 C121.887132,178.12991 119.481511,183.251586 115.293307,184.191065 C115.293307,184.191065 120.427607,180.863491 121.264094,177.881403 L118.379656,177.008596 C118.379656,177.008596 115.94519,181.96056 112.45502,182.718204 C112.45502,182.718204 118.016217,178.245072 117.710466,176.851006 C117.710466,176.851006 115.02217,176.214585 114.249141,176.408542 C114.249141,176.408542 112.420407,179.917951 110.35515,180.172519 C110.35515,180.172519 113.770324,176.76615 113.487649,176.317625 C113.487649,176.317625 109.778262,176.469154 107.932222,177.590467 C109.578923,176.469604 111.476468,175.821761 113.435729,175.711509 C112.558532,174.83921 111.457611,174.255593 110.268616,174.03257 C110.268616,174.03257 112.224265,172.959745 114.30683,175.687265 C114.30683,175.687265 117.191267,175.687265 117.58932,175.990322 C117.58932,175.990322 115.858657,172.959745 113.960697,171.826309 C113.960697,171.826309 116.672069,172.068755 118.35658,176.196402 L121.269863,177.008596 C121.269863,177.008596 119.187298,172.917317 117.566244,171.747514 C117.566244,171.747514 120.294923,172.438486 121.985203,177.281348 L124.708113,178.493579 C124.708113,178.493579 123.173592,174.826581 121.633302,173.111274 C121.633302,173.111274 124.033154,174.323505 125.469604,178.875432 L127.200267,179.924012 C127.200267,179.924012 126.046492,177.263165 125.636902,176.529765 C125.227311,175.796366 125.38884,175.626653 125.38884,175.626653 C126.637192,176.92221 127.518032,178.556994 127.932914,180.348293 C127.932914,180.348293 131.382702,182.760632 131.538462,182.554553 Z" id="Shape" opacity="0.1"></path>
                    <path d="M207.538462,87.9780173 C207.538462,87.9780173 196.269501,68.213836 184.919344,79.461156 C184.919344,79.461156 182.367443,80.6063816 182.727029,83.4634178 C182.727029,83.4634178 183.695592,82.8245025 184.623555,84.964266 C184.955389,85.7248947 185.374046,86.4412845 185.870507,87.0980019 C186.536519,87.9868624 187.46615,88.6224764 188.515204,88.9062527 L188.515204,88.9062527 C188.515204,88.9062527 194.111985,92.7517995 203.861405,88.9062527 C203.861405,88.9062527 206.691695,89.1533804 207.120878,88.7615927 L203.716411,86.4831967 C203.716411,86.4831967 202.208469,89.1413253 199.795764,89.581333 C199.795764,89.581333 203.72221,86.6700492 203.22923,86.1215465 C203.124834,86.007024 201.373302,84.9944035 201.373302,84.9944035 C201.373302,84.9944035 198.722805,89.6054431 194.993551,90.1660008 C194.993551,90.1660008 200.120551,87.3451296 200.717928,84.6086433 L197.980434,83.2705377 C197.980434,83.2705377 195.411135,88.2914475 191.1715,89.0931053 C191.1715,89.0931053 196.431895,85.9527764 197.359859,83.0173826 L194.49477,82.0529822 C194.49477,82.0529822 191.896472,86.8749843 188.370209,87.5380096 C188.370209,87.5380096 194.088786,83.2705377 193.821997,81.8781846 C193.821997,81.8781846 191.142501,81.1548843 190.342132,81.3236544 C190.342132,81.3236544 188.399208,84.7533034 186.317089,84.940156 C186.317089,84.940156 189.849152,81.6732495 189.582362,81.2151593 C189.582362,81.2151593 185.847308,81.2452968 183.962381,82.3001098 C185.650909,81.2416323 187.576179,80.6598645 189.547563,80.6124091 C188.690299,79.716403 187.599662,79.1004373 186.409886,78.8403233 C186.409886,78.8403233 188.410808,77.8337303 190.469727,80.6124091 C190.469727,80.6124091 193.369614,80.7148766 193.758199,81.0222792 C193.758199,81.0222792 192.116863,78.0085279 190.237736,76.7668623 C190.237736,76.7668623 192.952031,77.0923475 194.523769,81.2513243 L197.423656,82.1554497 C197.423656,82.1554497 195.457533,78.0205829 193.856795,76.8030274 C193.856795,76.8030274 196.582689,77.5805752 198.137028,82.4447699 L200.833923,83.752738 C200.833923,83.752738 199.401379,80.0578788 197.934036,78.3279855 C197.934036,78.3279855 200.306144,79.6118436 201.622692,84.1806906 L203.322026,85.2776961 C203.322026,85.2776961 202.231669,82.5954574 201.848883,81.8540746 C201.466098,81.1126918 201.628492,80.9499492 201.628492,80.9499492 C202.844229,82.2779331 203.681468,83.9305236 204.046998,85.7237313 C204.046998,85.7237313 207.370268,88.1769249 207.538462,87.9780173 Z" id="Shape"></path>
                    <path d="M138.843243,126.714905 C138.843243,126.714905 139.433032,105.445579 123.821329,108.443382 C123.821329,108.443382 121.025731,108.035859 119.846154,110.458664 C119.846154,110.458664 121.025731,110.458664 120.695449,112.607927 C120.587404,113.374295 120.575526,114.150072 120.660062,114.919082 C120.766681,115.962158 121.233011,116.943031 121.987086,117.710332 L121.987086,117.710332 C121.987086,117.710332 124.800378,123.594287 135.186554,125.592822 C135.186554,125.592822 137.492627,127.23966 138.07062,127.15034 L136.301255,123.6222 C136.301255,123.6222 133.617717,124.928505 131.311643,124.040887 C131.311643,124.040887 136.206888,123.767345 136.071237,123.08628 C136.071237,122.946717 135.056801,121.249637 135.056801,121.249637 C135.056801,121.249637 130.37388,123.51055 126.864638,122.025605 C126.864638,122.025605 132.762523,122.444292 134.691132,120.60765 L133.045622,118.134602 C133.045622,118.134602 128.221151,120.747212 124.15161,119.206442 C124.15161,119.206442 130.314901,119.440907 132.650463,117.615429 L130.686468,115.382429 C130.686468,115.382429 125.926874,117.849894 122.553283,116.543589 C122.553283,116.543589 129.701521,116.136067 130.220535,114.902334 C130.220535,114.902334 128.286028,112.965207 127.507507,112.669334 C127.507507,112.669334 124.051346,114.344084 122.164023,113.439719 C122.164023,113.439719 126.882331,112.691664 126.911821,112.194822 C126.911821,112.194822 123.685677,110.302354 121.509358,110.162792 C123.51617,110.196752 125.478529,110.727994 127.200817,111.703562 C126.932109,110.5625 126.317141,109.520571 125.431451,108.705759 C125.431451,108.705759 127.678546,108.945807 127.985236,112.166909 C127.985236,112.166909 130.444654,113.741174 130.603897,114.176609 C130.603897,114.176609 130.774936,110.955507 129.789989,109.035127 C129.789989,109.035127 131.960411,110.681964 131.146503,114.746024 L133.169477,116.945529 C133.169477,116.945529 133.629512,112.691664 132.892277,110.922012 C132.892277,110.922012 134.826783,112.926129 133.63541,117.537274 L135.269125,119.943332 C135.269125,119.943332 135.965075,116.309124 135.593508,114.171027 C135.593508,114.171027 136.961818,116.404027 135.711466,120.65231 L136.607945,122.382885 C136.607945,122.382885 137.062082,119.720032 137.121061,118.944065 C137.18004,118.168097 137.404159,118.117854 137.404159,118.117854 C137.759195,119.783167 137.618302,121.509105 136.997205,123.103027 C136.997205,123.103027 138.583736,126.787477 138.843243,126.714905 Z" id="Shape"></path>
                </g>
                <g id="react-1" transform="translate(280.000000, 89.000000)" fill="#00D8FF" fill-rule="nonzero">
                    <path d="M152.621006,53.479585 C150.695377,52.8173987 148.700031,52.1908635 146.645541,51.5983289 C146.98322,50.2214699 147.293145,48.8624364 147.568707,47.5265102 C152.09202,25.5901855 149.13452,7.91812943 139.035538,2.0997366 C129.351881,-3.47933164 113.515,2.33774079 97.5205127,16.2443136 C95.9824537,17.5815603 94.4400992,18.9973714 92.8984074,20.4811837 C91.8711615,19.4994578 90.8455696,18.5507423 89.8226207,17.6432895 C73.0599298,2.77347648 56.25792,-3.49286588 46.1688506,2.34236223 C36.4944456,7.93760556 33.6294605,24.5510217 37.701103,45.3402391 C38.0942909,47.3482547 38.5538911,49.3988536 39.0736261,51.4837832 C36.6956654,52.1581833 34.3999767,52.8771473 32.203411,53.6419956 C12.5509544,60.4873384 0,71.2156808 0,82.3437779 C0,93.8369698 13.4734591,105.364821 33.9430196,112.354748 C35.5583941,112.90635 37.2345641,113.427913 38.9619476,113.923067 C38.4012418,116.178 37.9135567,118.387708 37.5041786,120.54295 C33.6218611,140.971365 36.6537033,157.192288 46.3023362,162.752211 C56.2684931,168.494021 72.9945079,162.592111 89.2814086,148.36864 C90.568686,147.244309 91.8605889,146.051978 93.1548048,144.802209 C94.8322972,146.416081 96.5071445,147.943467 98.1730723,149.376113 C113.948828,162.939049 129.529973,168.415787 139.169684,162.840349 C149.125929,157.082034 152.361634,139.656895 148.160801,118.45637 C147.839973,116.837215 147.46661,115.18307 147.04732,113.499546 C148.221927,113.152607 149.375058,112.794446 150.499444,112.42209 C171.7795,105.378025 185.625,93.9904665 185.625,82.3437779 C185.625,71.1754085 172.669293,60.3747733 152.621006,53.479585 L152.621006,53.479585 Z M148.005509,104.902017 C146.99049,105.237731 145.949037,105.562223 144.88776,105.87681 C142.538545,98.4465257 139.367931,90.5455135 135.487926,82.3824005 C139.190501,74.413717 142.238532,66.6137173 144.521996,59.2316272 C146.420862,59.7805882 148.263889,60.3595887 150.039843,60.9706091 C167.217198,66.8784597 177.69516,75.6133111 177.69516,82.3437779 C177.69516,89.512952 166.379279,98.8195415 148.005509,104.902017 L148.005509,104.902017 Z M140.381628,119.994979 C142.239193,129.36957 142.504512,137.84529 141.274065,144.471115 C140.168514,150.42485 137.945185,154.394337 135.196174,155.984113 C129.346264,159.367006 116.836282,154.969707 103.344649,143.370553 C101.798,142.040898 100.240117,140.621126 98.6772776,139.118497 C103.907668,133.403426 109.135085,126.759447 114.236946,119.380657 C123.210551,118.585111 131.688542,117.284504 139.376852,115.508881 C139.755501,117.034947 140.091859,118.531633 140.381628,119.994979 L140.381628,119.994979 Z M63.2837584,155.399501 C57.568326,157.416099 53.0162674,157.473867 50.2646129,155.888713 C44.4094173,152.514731 41.9752868,139.490853 45.2955769,122.02049 C45.6758789,120.019737 46.1285406,117.964517 46.6502579,115.863742 C54.2543137,117.543636 62.6701869,118.752472 71.6652686,119.481009 C76.8014925,126.70135 82.1799065,133.338067 87.599952,139.149197 C86.4157624,140.291352 85.2361982,141.378712 84.0632433,142.403351 C76.8612964,148.692801 69.644151,153.155131 63.2837584,155.399501 L63.2837584,155.399501 Z M36.5076621,104.858113 C27.4564104,101.76736 19.981545,97.7503387 14.857877,93.3669029 C10.2539441,89.4277859 7.92950968,85.5170575 7.92950968,82.3437779 C7.92950968,75.5908641 18.0066844,66.9774905 34.81365,61.1231165 C36.8529405,60.4127352 38.9877195,59.7432866 41.2031187,59.1144407 C43.5259009,66.6632326 46.572942,74.5556613 50.250075,82.5365579 C46.525363,90.6359614 43.4350382,98.6541607 41.0894576,106.291419 C39.5100978,105.837858 37.9799691,105.36053 36.5076621,104.858113 L36.5076621,104.858113 Z M45.4832498,43.818795 C41.9947809,26.0071055 44.311616,12.570599 50.1417004,9.19892854 C56.3517565,5.60707939 70.0839263,10.7282949 84.5572066,23.5676453 C85.4823544,24.388281 86.411137,25.2472086 87.3425627,26.1358455 C81.9492805,31.9215582 76.6200977,38.5084305 71.5294709,45.6861867 C62.7993772,46.4946087 54.4426473,47.7932333 46.7592933,49.5322151 C46.2762338,47.5908802 45.8483528,45.683546 45.4832498,43.818795 L45.4832498,43.818795 Z M125.553488,63.5718194 C123.716739,60.4021718 121.831089,57.3074576 119.908764,54.2972498 C125.831363,55.0452628 131.505824,56.0382122 136.834677,57.2533209 C135.234831,62.3758568 133.240808,67.7317756 130.893575,73.2223764 C129.209806,70.0286312 127.428896,66.8084779 125.553488,63.5718194 L125.553488,63.5718194 Z M92.9010497,31.7977696 C96.5586888,35.7566932 100.221614,40.1767703 103.824405,44.9725044 C100.193859,44.801181 96.5183784,44.7120533 92.8125007,44.7120533 C89.1416453,44.7120533 85.4932584,44.7992005 81.8851804,44.9675529 C85.4916059,40.2163825 89.1862504,35.8022472 92.9010497,31.7977696 L92.9010497,31.7977696 Z M60.0394625,63.6266165 C58.2046957,66.8051768 56.4568268,70.0078348 54.7994902,73.2164346 C52.4902547,67.7449797 50.5147333,62.3646333 48.9010108,57.1694746 C54.1971528,55.9853957 59.844851,55.0172042 65.7297836,54.2833855 C63.7803645,57.3213219 61.8791853,60.4388133 60.0394625,63.6259563 L60.0394625,63.6266165 L60.0394625,63.6266165 Z M65.8992838,110.969307 C59.819079,110.291606 54.0864654,109.37326 48.7916451,108.221861 C50.4311396,102.933943 52.4502751,97.4387213 54.8084113,91.8494195 C56.4700432,95.0557089 58.2248508,98.2596874 60.0708514,101.44518 L60.0711818,101.44518 C61.9515452,104.690421 63.8996425,107.869311 65.8992838,110.969307 L65.8992838,110.969307 Z M93.1204424,133.44832 C89.3620285,129.396968 85.6131968,124.915493 81.9519235,120.095001 C85.5061434,120.234304 89.12975,120.305606 92.8125007,120.305606 C96.5960255,120.305606 100.336266,120.22044 104.017695,120.056708 C100.403009,124.964018 96.7533006,129.452426 93.1204424,133.44832 L93.1204424,133.44832 Z M130.969239,91.5645413 C133.450287,97.2142514 135.541783,102.680755 137.202423,107.878554 C131.820375,109.105216 126.009455,110.093214 119.886957,110.827363 C121.813908,107.776552 123.716078,104.628691 125.585207,101.390712 C127.476144,98.1147723 129.271592,94.8338803 130.969239,91.5645413 L130.969239,91.5645413 Z M118.716314,97.4327796 C115.814653,102.459255 112.835677,107.25763 109.811434,111.786972 C104.303168,112.180454 98.612517,112.383138 92.8125007,112.383138 C87.0359428,112.383138 81.4169892,112.203891 76.0061959,111.852992 C72.8600313,107.264233 69.8162947,102.451664 66.9331368,97.4760226 L66.9337976,97.4760226 C64.0582393,92.5139173 61.4116553,87.5098874 59.0135395,82.5339181 C61.4109944,77.5463934 64.0506398,72.5367529 66.9096776,67.5835594 L66.9090168,67.5845497 C69.7756539,62.6181523 72.7926277,57.8290202 75.9097152,53.2689793 C81.4302056,52.8520596 87.0911206,52.6345218 92.8121701,52.6345218 L92.8125007,52.6345218 C98.5593217,52.6345218 104.227505,52.85371 109.746343,53.2742611 C112.815852,57.8009615 115.81234,62.5745787 118.690212,67.5416364 C121.600794,72.5644817 124.274471,77.5407813 126.692411,82.4213528 C124.28174,87.385769 121.61401,92.4122459 118.716314,97.4327796 L118.716314,97.4327796 Z M135.074583,8.96323507 C141.290587,12.5445209 143.707865,26.987841 139.80242,45.927492 C139.55329,47.1359986 139.272773,48.3669521 138.968134,49.6144107 C131.266938,47.8391176 122.90426,46.5180461 114.148727,45.6974103 C109.048187,38.4407594 103.762618,31.8436539 98.4572243,26.1322143 C99.8836045,24.7612973 101.308002,23.4540899 102.726452,22.2204957 C116.430537,10.3054333 129.238881,5.60113753 135.074583,8.96323507 L135.074583,8.96323507 Z M92.8125007,65.7835085 C101.96684,65.7835085 109.388179,73.1976185 109.388179,82.3437779 C109.388179,91.489607 101.96684,98.9040484 92.8125007,98.9040484 C83.6581609,98.9040484 76.236822,91.489607 76.236822,82.3437779 C76.236822,73.1976185 83.6581609,65.7835085 92.8125007,65.7835085 L92.8125007,65.7835085 Z" id="Shape"></path>
                </g>
            </g>
        </g>
    </g>
</svg>