<?xml version="1.0" standalone="no"?><!DOCTYPE svg PUBLIC "-//W3C//DTD SVG 1.1//EN" "http://www.w3.org/Graphics/SVG/1.1/DTD/svg11.dtd"><svg t="1575963371640" class="icon" viewBox="0 0 1024 1024" version="1.1" xmlns="http://www.w3.org/2000/svg" p-id="1717" xmlns:xlink="http://www.w3.org/1999/xlink" width="200" height="200"><defs><style type="text/css"></style></defs><path d="M468.8 566.8l-3.2 4-2.4 2.8-4.4 5.2L372 683.6H106.8V1024h371.2V566.8h-9.2z m-3.2 444.8H119.2V696h258.4l88-105.6v421.2z" fill="#4A555F" p-id="1718"></path><path d="M451.2 598v399.2H133.6v-307.6h241.2z" fill="#F68F6F" p-id="1719"></path><path d="M570.8 683.6L484 579.2l-4.4-5.6-1.2-1.6-4.4-5.2h-8V1024h371.2v-340.4h-266.4z m253.6 328h-346.4v-420l86.8 104.4h259.6v315.6z" fill="#4A555F" p-id="1720"></path><path d="M810 689.6v307.6h-317.6v-398l75.6 90.4z" fill="#FFD552" p-id="1721"></path><path d="M484.8 566.8l-5.6 7.2-1.2 1.2-0.8 1.2-5.6 6.8-5.6-6-0.4-0.4-2.4-2.8-6.4-7.2z" fill="#4A555F" p-id="1722"></path><path d="M484.8 566.8l-5.6 7.2-1.2 1.2-0.8 1.2-5.6 6.8-5.6-6-0.4-0.4-2.4-2.8-6.4-7.2z" fill="#4A555F" p-id="1723"></path><path d="M577.6 669.2l-62.8-75.6h306l62 75.6z" fill="#E0E0E0" p-id="1724"></path><path d="M478 566.8v24.8l-6.8-8-5.2-6.4-0.4-0.4-2.4-2.8-5.6-7.2zM309.6 579.2H214.8L171.6 464c-5.6-15.2-18.8-26-34.8-28.8-27.2-4.4-50-22-61.6-47.2-14-30.4-8.4-66.4 14.4-90.8l6.4-6.8 32 68.8c2 4.8 7.2 7.6 12 6.8l21.2-2.4c4-0.4 7.2-2.8 8.8-6 2-3.2 2-7.2 0.4-10.8L136 271.6l8.8-0.4c34-2.4 66.4 17.2 80.8 48 11.2 24 10 52.4-3.2 75.6-7.6 13.6-7.6 30 0 43.6l87.2 140.8z m-86.4-12.4h64l-75.6-122.4c-10-17.6-9.6-38.8 0-56 11.2-19.6 12.4-43.6 2.8-64-10.8-23.6-33.6-39.2-59.2-40.8l26.8 58.4c3.2 7.2 2.8 15.2-0.8 22-4 6.8-10.4 11.2-18.4 12.4l-21.2 2.4c-10.4 1.2-20.4-4.4-24.8-14l-24-51.6c-14 20-16.8 46.8-6 69.6 9.6 21.2 29.2 36 52.4 40 20.4 3.6 37.2 17.6 44 36.4l40 107.6z" fill="#4A555F" p-id="1725"></path><path d="M274.4 573.2h-33.2l-44.4-118.8c-8.8-24-30-41.2-55.2-45.6-18.4-3.2-34-15.2-41.6-32-4-8.4-5.6-17.2-5.2-26l9.2 19.6c6.4 13.6 20 22.4 35.2 22.4 1.6 0 2.8 0 4.4-0.4l21.6-2.4c12.4-1.6 23.2-8.8 29.2-19.6s6.4-24 1.2-35.2l-13.2-28.4c8 5.6 14.8 13.2 19.2 22.8 7.6 16.4 6.8 35.2-2.4 50.8-12.4 21.6-12.4 48.4 0 70l0.4 0.8 74.8 122z" fill="#E0E0E0" p-id="1726"></path><path d="M878.4 395.2l-116-42.8L804 239.6l116 42.8-41.6 112.8z m-99.6-50l92.8 34.4 33.2-89.6-92.8-34.4-33.2 89.6z" fill="#4A555F" p-id="1727"></path><path d="M885.952 298.552l-23.164 62.652-65.656-24.276 23.168-62.652z" fill="#F68F6F" p-id="1728"></path><path d="M742.4 331.6l-57.2-21.2 32.8-89.2 57.2 21.2-32.8 89.2z m-41.2-28.4l34 12.4 24.4-66-34-12.4-24.4 66z" fill="#4A555F" p-id="1729"></path><path d="M741.04 258.052l-14.296 38.64-6.752-2.496 14.292-38.64z" fill="#F68F6F" p-id="1730"></path><path d="M783.6 332l-48-17.6 23.2-63.2 48 17.6-23.2 63.2z m-32-25.2l24.8 9.2 14.8-40-24.8-9.2-14.8 40zM1021.2 413.2l-39.2-14.4-1.2-2.4c-14.8-30-40-53.2-71.6-64.8l-18-6.8 17.2-46.8 18 6.8c46.4 17.2 80 56.4 89.6 104.8l5.2 23.6z m-30.4-24.4l14 5.2-0.4-2c-8.8-44.4-39.6-80-82-95.6l-6.4-2.4-8.8 23.6 6.4 2.4c33.6 12.8 61.2 37.2 77.2 68.8zM778.4 579.2h-68.8l84.4-228.4 60.8 22.4-76.4 206z m-51.2-12.4h42.8l68.8-186.4-37.6-14-74 200.4z" fill="#4A555F" p-id="1731"></path><path d="M801.2 439.6l18.8-50.4-10.4-4-20 54.4z" fill="#F68F6F" p-id="1732"></path><path d="M491.6 504.8h-37.6l-26.8-68-67.6 29.6-3.6-4-27.2-27.2L358 368l-68-26.8v-37.6l68-26.8-29.2-66.8 4.4-4.4 22-22 67.2 29.2 26.8-68h37.6l26.8 68 67.2-29.2 31.2 31.2-29.2 67.2 68 26.8v37.6l-68 26.8 29.2 67.2-4.8 4.4-22 22-67.2-29.2-26.4 67.2z m-29.2-12.4h20.8l28.4-72.4 71.2 31.2 14.8-14.8-31.2-71.2 72.4-28.4V316l-72.4-28.4 31.2-71.2-19.2-19.2-71.2 30.8-28.4-72h-20.8l-28.4 72-71.2-30.8-14.8 14.8 30.8 71.2-72 28.4v20.8l72 28.4-30.8 71.2 19.2 19.2 71.2-30.8 28.4 72z m8-104.4c-22 0-42.8-11.6-54-30.8-5.6-9.6-8.8-20.4-8.8-31.6 0-34.4 28-62.8 62.8-62.8 10.8 0 21.6 2.8 30.8 8.4 19.6 11.2 31.6 32 31.6 54.4 0.4 34.4-28 62.4-62.4 62.4z m0-112.8c-27.6 0-50.4 22.4-50.4 50.4 0 9.2 2.4 18 7.2 25.6 9.2 15.6 25.2 24.8 43.2 24.8 27.6 0 50.4-22.4 50.4-50 0-18-9.6-34.8-25.6-43.6-7.6-5.2-16-7.2-24.8-7.2z" fill="#4A555F" p-id="1733"></path><path d="M472.4 478l-30.4-76.8-75.6 33.2-5.2-5.2 32.8-76-76.8-30.4v-1.2l76.8-30L361.2 216l0.8-0.8 76 32.8 30-76.8h1.2l30.4 76.8 75.6-32.8 5.2 5.2-33.2 75.6 77.2 30.4v1.2l-77.2 30 33.2 75.6-0.8 0.8-75.6-33.2-30 77.2h-1.6z m-2-229.6c-42.4 0-77.2 34.4-77.2 77.2 0 14 3.6 27.6 10.8 39.2 13.6 23.2 39.2 37.6 66.4 37.6 42.4 0 77.2-34.4 77.2-76.8 0-27.6-14.8-53.2-38.8-66.8-11.6-6.8-25.2-10.4-38.4-10.4z" fill="#FFD552" p-id="1734"></path><path d="M476.8 86.4h-12.4v-12.4h12.4v12.4z m0-24.4h-12.4v-12.4h12.4v12.4z m0-24.8h-12.4V24.8h12.4v12.4z m0-24.8h-12.4V0h12.4v12.4z" fill="#4A555F" p-id="1735"></path><path d="M725.512 98.096l9.804 7.592-36.98 47.756-9.804-7.596z" fill="#4A555F" p-id="1736"></path><path d="M236.54 98.304l36.976 47.76-9.804 7.592-36.976-47.76z" fill="#4A555F" p-id="1737"></path><path d="M110.4 566.8L2.8 696h374.8l88-105.6 5.6-6.8v-0.4l6-6.8 0.8-0.8 1.2-1.6 5.6-6.8H110.4zM372 683.6H29.2L116 579.2h342.8L372 683.6z" fill="#4A555F" p-id="1738"></path><path d="M833.6 566.8h-376l5.6 6.8 2.4 2.8 0.4 0.4 5.2 6 6.8 8 86.8 104.4h374.8l-106-128.4z m-262.8 116.8L484 579.2h343.6l85.6 104.4h-342.4z" fill="#4A555F" p-id="1739"></path></svg>